# Blender 4.5.0
# www.blender.org
mtllib GlowStick.mtl
o Cylinder.001
v 0.000000 0.117459 -0.029107
v 0.000000 0.143978 -0.029107
v 0.005678 0.117459 -0.028548
v 0.005678 0.143978 -0.028548
v 0.011139 0.117459 -0.026891
v 0.011139 0.143978 -0.026891
v 0.016171 0.117459 -0.024201
v 0.016171 0.143978 -0.024201
v 0.020582 0.117459 -0.020582
v 0.020582 0.143978 -0.020582
v 0.024201 0.117459 -0.016171
v 0.024201 0.143978 -0.016171
v 0.026891 0.117459 -0.011139
v 0.026891 0.143978 -0.011139
v 0.028548 0.117459 -0.005678
v 0.028548 0.143978 -0.005678
v 0.029107 0.117459 0.000000
v 0.029107 0.143978 0.000000
v 0.028548 0.117459 0.005678
v 0.028548 0.143978 0.005678
v 0.026891 0.117459 0.011139
v 0.026891 0.143978 0.011139
v 0.024201 0.117459 0.016171
v 0.024201 0.143978 0.016171
v 0.020582 0.117459 0.020582
v 0.020582 0.143978 0.020582
v 0.016171 0.117459 0.024201
v 0.016171 0.143978 0.024201
v 0.011139 0.117459 0.026891
v 0.011139 0.143978 0.026891
v 0.005678 0.117459 0.028548
v 0.005678 0.143978 0.028548
v 0.000000 0.117459 0.029107
v 0.000000 0.143978 0.029107
v -0.005678 0.117459 0.028548
v -0.005678 0.143978 0.028548
v -0.011139 0.117459 0.026891
v -0.011139 0.143978 0.026891
v -0.016171 0.117459 0.024201
v -0.016171 0.143978 0.024201
v -0.020582 0.117459 0.020582
v -0.020582 0.143978 0.020582
v -0.024201 0.117459 0.016171
v -0.024201 0.143978 0.016171
v -0.026891 0.117459 0.011139
v -0.026891 0.143978 0.011139
v -0.028548 0.117459 0.005678
v -0.028548 0.143978 0.005678
v -0.029107 0.117459 0.000000
v -0.029107 0.143978 0.000000
v -0.028548 0.117459 -0.005678
v -0.028548 0.143978 -0.005678
v -0.026891 0.117459 -0.011139
v -0.026891 0.143978 -0.011139
v -0.024201 0.117459 -0.016171
v -0.024201 0.143978 -0.016171
v -0.020582 0.117459 -0.020582
v -0.020582 0.143978 -0.020582
v -0.016171 0.117459 -0.024201
v -0.016171 0.143978 -0.024201
v -0.011139 0.117459 -0.026891
v -0.011139 0.143978 -0.026891
v -0.005678 0.117459 -0.028548
v -0.005678 0.143978 -0.028548
v 0.000000 -0.124972 -0.024998
v 0.000000 0.124972 -0.024998
v 0.004877 -0.124972 -0.024518
v 0.004877 0.124972 -0.024518
v 0.009566 -0.124972 -0.023095
v 0.009566 0.124972 -0.023095
v 0.013888 -0.124972 -0.020785
v 0.013888 0.124972 -0.020785
v 0.017676 -0.124972 -0.017676
v 0.017676 0.124972 -0.017676
v 0.020785 -0.124972 -0.013888
v 0.020785 0.124972 -0.013888
v 0.023095 -0.124972 -0.009566
v 0.023095 0.124972 -0.009566
v 0.024518 -0.124972 -0.004877
v 0.024518 0.124972 -0.004877
v 0.024998 -0.124972 0.000000
v 0.024998 0.124972 0.000000
v 0.024518 -0.124972 0.004877
v 0.024518 0.124972 0.004877
v 0.023095 -0.124972 0.009566
v 0.023095 0.124972 0.009566
v 0.020785 -0.124972 0.013888
v 0.020785 0.124972 0.013888
v 0.017676 -0.124972 0.017676
v 0.017676 0.124972 0.017676
v 0.013888 -0.124972 0.020785
v 0.013888 0.124972 0.020785
v 0.009566 -0.124972 0.023095
v 0.009566 0.124972 0.023095
v 0.004877 -0.124972 0.024518
v 0.004877 0.124972 0.024518
v 0.000000 -0.124972 0.024998
v 0.000000 0.124972 0.024998
v -0.004877 -0.124972 0.024518
v -0.004877 0.124972 0.024518
v -0.009566 -0.124972 0.023095
v -0.009566 0.124972 0.023095
v -0.013888 -0.124972 0.020785
v -0.013888 0.124972 0.020785
v -0.017676 -0.124972 0.017676
v -0.017676 0.124972 0.017676
v -0.020785 -0.124972 0.013888
v -0.020785 0.124972 0.013888
v -0.023095 -0.124972 0.009566
v -0.023095 0.124972 0.009566
v -0.024518 -0.124972 0.004877
v -0.024518 0.124972 0.004877
v -0.024998 -0.124972 0.000000
v -0.024998 0.124972 0.000000
v -0.024518 -0.124972 -0.004877
v -0.024518 0.124972 -0.004877
v -0.023095 -0.124972 -0.009566
v -0.023095 0.124972 -0.009566
v -0.020785 -0.124972 -0.013888
v -0.020785 0.124972 -0.013888
v -0.017676 -0.124972 -0.017676
v -0.017676 0.124972 -0.017676
v -0.013888 -0.124972 -0.020785
v -0.013888 0.124972 -0.020785
v -0.009566 -0.124972 -0.023095
v -0.009566 0.124972 -0.023095
v -0.004877 -0.124972 -0.024518
v -0.004877 0.124972 -0.024518
v 0.000000 -0.136595 -0.029107
v 0.000000 -0.110075 -0.029107
v 0.005678 -0.136595 -0.028548
v 0.005678 -0.110075 -0.028548
v 0.011139 -0.136595 -0.026891
v 0.011139 -0.110075 -0.026891
v 0.016171 -0.136595 -0.024201
v 0.016171 -0.110075 -0.024201
v 0.020582 -0.136595 -0.020582
v 0.020582 -0.110075 -0.020582
v 0.024201 -0.136595 -0.016171
v 0.024201 -0.110075 -0.016171
v 0.026891 -0.136595 -0.011139
v 0.026891 -0.110075 -0.011139
v 0.028548 -0.136595 -0.005678
v 0.028548 -0.110075 -0.005678
v 0.029107 -0.136595 0.000000
v 0.029107 -0.110075 0.000000
v 0.028548 -0.136595 0.005678
v 0.028548 -0.110075 0.005678
v 0.026891 -0.136595 0.011139
v 0.026891 -0.110075 0.011139
v 0.024201 -0.136595 0.016171
v 0.024201 -0.110075 0.016171
v 0.020582 -0.136595 0.020582
v 0.020582 -0.110075 0.020582
v 0.016171 -0.136595 0.024201
v 0.016171 -0.110075 0.024201
v 0.011139 -0.136595 0.026891
v 0.011139 -0.110075 0.026891
v 0.005678 -0.136595 0.028548
v 0.005678 -0.110075 0.028548
v 0.000000 -0.136595 0.029107
v 0.000000 -0.110075 0.029107
v -0.005678 -0.136595 0.028548
v -0.005678 -0.110075 0.028548
v -0.011139 -0.136595 0.026891
v -0.011139 -0.110075 0.026891
v -0.016171 -0.136595 0.024201
v -0.016171 -0.110075 0.024201
v -0.020582 -0.136595 0.020582
v -0.020582 -0.110075 0.020582
v -0.024201 -0.136595 0.016171
v -0.024201 -0.110075 0.016171
v -0.026891 -0.136595 0.011139
v -0.026891 -0.110075 0.011139
v -0.028548 -0.136595 0.005678
v -0.028548 -0.110075 0.005678
v -0.029107 -0.136595 0.000000
v -0.029107 -0.110075 0.000000
v -0.028548 -0.136595 -0.005678
v -0.028548 -0.110075 -0.005678
v -0.026891 -0.136595 -0.011139
v -0.026891 -0.110075 -0.011139
v -0.024201 -0.136595 -0.016171
v -0.024201 -0.110075 -0.016171
v -0.020582 -0.136595 -0.020582
v -0.020582 -0.110075 -0.020582
v -0.016171 -0.136595 -0.024201
v -0.016171 -0.110075 -0.024201
v -0.011139 -0.136595 -0.026891
v -0.011139 -0.110075 -0.026891
v -0.005678 -0.136595 -0.028548
v -0.005678 -0.110075 -0.028548
vn 0.0980 -0.0000 -0.9952
vn 0.2903 -0.0000 -0.9569
vn 0.4714 -0.0000 -0.8819
vn 0.6344 -0.0000 -0.7730
vn 0.7730 -0.0000 -0.6344
vn 0.8819 -0.0000 -0.4714
vn 0.9569 -0.0000 -0.2903
vn 0.9952 -0.0000 -0.0980
vn 0.9952 -0.0000 0.0980
vn 0.9569 -0.0000 0.2903
vn 0.8819 -0.0000 0.4714
vn 0.7730 -0.0000 0.6344
vn 0.6344 -0.0000 0.7730
vn 0.4714 -0.0000 0.8819
vn 0.2903 -0.0000 0.9569
vn 0.0980 -0.0000 0.9952
vn -0.0980 -0.0000 0.9952
vn -0.2903 -0.0000 0.9569
vn -0.4714 -0.0000 0.8819
vn -0.6344 -0.0000 0.7730
vn -0.7730 -0.0000 0.6344
vn -0.8819 -0.0000 0.4714
vn -0.9569 -0.0000 0.2903
vn -0.9952 -0.0000 0.0980
vn -0.9952 -0.0000 -0.0980
vn -0.9569 -0.0000 -0.2903
vn -0.8819 -0.0000 -0.4714
vn -0.7730 -0.0000 -0.6344
vn -0.6344 -0.0000 -0.7730
vn -0.4714 -0.0000 -0.8819
vn -0.0000 1.0000 -0.0000
vn -0.2903 -0.0000 -0.9569
vn -0.0980 -0.0000 -0.9952
vn -0.0000 -1.0000 -0.0000
vt 1.000000 1.000000
vt 0.968750 0.500000
vt 1.000000 0.500000
vt 0.968750 1.000000
vt 0.937500 0.500000
vt 0.937500 1.000000
vt 0.906250 0.500000
vt 0.906250 1.000000
vt 0.875000 0.500000
vt 0.875000 1.000000
vt 0.843750 0.500000
vt 0.843750 1.000000
vt 0.812500 0.500000
vt 0.812500 1.000000
vt 0.781250 0.500000
vt 0.781250 1.000000
vt 0.750000 0.500000
vt 0.750000 1.000000
vt 0.718750 0.500000
vt 0.718750 1.000000
vt 0.687500 0.500000
vt 0.687500 1.000000
vt 0.656250 0.500000
vt 0.656250 1.000000
vt 0.625000 0.500000
vt 0.625000 1.000000
vt 0.593750 0.500000
vt 0.593750 1.000000
vt 0.562500 0.500000
vt 0.562500 1.000000
vt 0.531250 0.500000
vt 0.531250 1.000000
vt 0.500000 0.500000
vt 0.500000 1.000000
vt 0.468750 0.500000
vt 0.468750 1.000000
vt 0.437500 0.500000
vt 0.437500 1.000000
vt 0.406250 0.500000
vt 0.406250 1.000000
vt 0.375000 0.500000
vt 0.375000 1.000000
vt 0.343750 0.500000
vt 0.343750 1.000000
vt 0.312500 0.500000
vt 0.312500 1.000000
vt 0.281250 0.500000
vt 0.281250 1.000000
vt 0.250000 0.500000
vt 0.250000 1.000000
vt 0.218750 0.500000
vt 0.218750 1.000000
vt 0.187500 0.500000
vt 0.187500 1.000000
vt 0.156250 0.500000
vt 0.156250 1.000000
vt 0.125000 0.500000
vt 0.125000 1.000000
vt 0.093750 0.500000
vt 0.093750 1.000000
vt 0.062500 0.500000
vt 0.158156 0.028269
vt 0.471731 0.158156
vt 0.341844 0.471731
vt 0.062500 1.000000
vt 0.031250 0.500000
vt 0.031250 1.000000
vt 0.000000 0.500000
vt 0.796822 0.014612
vt 0.514612 0.203178
vt 0.703178 0.485388
vt 0.296822 0.485388
vt 0.250000 0.490000
vt 0.203178 0.485388
vt 0.158156 0.471731
vt 0.116663 0.449553
vt 0.080294 0.419706
vt 0.050447 0.383337
vt 0.028269 0.341844
vt 0.014612 0.296822
vt 0.010000 0.250000
vt 0.014612 0.203178
vt 0.028269 0.158156
vt 0.050447 0.116663
vt 0.080294 0.080294
vt 0.116663 0.050447
vt 0.203178 0.014612
vt 0.250000 0.010000
vt 0.296822 0.014612
vt 0.341844 0.028269
vt 0.383337 0.050447
vt 0.419706 0.080294
vt 0.449553 0.116663
vt 0.485388 0.203178
vt 0.490000 0.250000
vt 0.485388 0.296822
vt 0.471731 0.341844
vt 0.449553 0.383337
vt 0.419706 0.419706
vt 0.383337 0.449553
vt 0.000000 1.000000
vt 0.750000 0.490000
vt 0.796822 0.485388
vt 0.841844 0.471731
vt 0.883337 0.449553
vt 0.919706 0.419706
vt 0.949553 0.383337
vt 0.971731 0.341844
vt 0.985388 0.296822
vt 0.990000 0.250000
vt 0.985388 0.203178
vt 0.971731 0.158156
vt 0.949553 0.116663
vt 0.919706 0.080294
vt 0.883337 0.050447
vt 0.841844 0.028269
vt 0.750000 0.010000
vt 0.703178 0.014612
vt 0.658156 0.028269
vt 0.616663 0.050447
vt 0.580294 0.080294
vt 0.550447 0.116663
vt 0.528269 0.158156
vt 0.510000 0.250000
vt 0.514612 0.296822
vt 0.528269 0.341844
vt 0.550447 0.383337
vt 0.580294 0.419706
vt 0.616663 0.449553
vt 0.658156 0.471731
s 0
f 2/1/1 3/2/1 1/3/1
f 4/4/2 5/5/2 3/2/2
f 6/6/3 7/7/3 5/5/3
f 8/8/4 9/9/4 7/7/4
f 10/10/5 11/11/5 9/9/5
f 12/12/6 13/13/6 11/11/6
f 14/14/7 15/15/7 13/13/7
f 16/16/8 17/17/8 15/15/8
f 18/18/9 19/19/9 17/17/9
f 20/20/10 21/21/10 19/19/10
f 22/22/11 23/23/11 21/21/11
f 24/24/12 25/25/12 23/23/12
f 26/26/13 27/27/13 25/25/13
f 28/28/14 29/29/14 27/27/14
f 30/30/15 31/31/15 29/29/15
f 32/32/16 33/33/16 31/31/16
f 34/34/17 35/35/17 33/33/17
f 36/36/18 37/37/18 35/35/18
f 38/38/19 39/39/19 37/37/19
f 40/40/20 41/41/20 39/39/20
f 42/42/21 43/43/21 41/41/21
f 44/44/22 45/45/22 43/43/22
f 46/46/23 47/47/23 45/45/23
f 48/48/24 49/49/24 47/47/24
f 50/50/25 51/51/25 49/49/25
f 52/52/26 53/53/26 51/51/26
f 54/54/27 55/55/27 53/53/27
f 56/56/28 57/57/28 55/55/28
f 58/58/29 59/59/29 57/57/29
f 60/60/30 61/61/30 59/59/30
f 38/62/31 22/63/31 6/64/31
f 62/65/32 63/66/32 61/61/32
f 64/67/33 1/68/33 63/66/33
f 31/69/34 47/70/34 63/71/34
f 66/1/1 67/2/1 65/3/1
f 68/4/2 69/5/2 67/2/2
f 70/6/3 71/7/3 69/5/3
f 72/8/4 73/9/4 71/7/4
f 74/10/5 75/11/5 73/9/5
f 76/12/6 77/13/6 75/11/6
f 78/14/7 79/15/7 77/13/7
f 80/16/8 81/17/8 79/15/8
f 82/18/9 83/19/9 81/17/9
f 84/20/10 85/21/10 83/19/10
f 86/22/11 87/23/11 85/21/11
f 88/24/12 89/25/12 87/23/12
f 90/26/13 91/27/13 89/25/13
f 92/28/14 93/29/14 91/27/14
f 94/30/15 95/31/15 93/29/15
f 96/32/16 97/33/16 95/31/16
f 98/34/17 99/35/17 97/33/17
f 100/36/18 101/37/18 99/35/18
f 102/38/19 103/39/19 101/37/19
f 104/40/20 105/41/20 103/39/20
f 106/42/21 107/43/21 105/41/21
f 108/44/22 109/45/22 107/43/22
f 110/46/23 111/47/23 109/45/23
f 112/48/24 113/49/24 111/47/24
f 114/50/25 115/51/25 113/49/25
f 116/52/26 117/53/26 115/51/26
f 118/54/27 119/55/27 117/53/27
f 120/56/28 121/57/28 119/55/28
f 122/58/29 123/59/29 121/57/29
f 124/60/30 125/61/30 123/59/30
f 102/62/31 86/63/31 70/64/31
f 126/65/32 127/66/32 125/61/32
f 128/67/33 65/68/33 127/66/33
f 95/69/34 111/70/34 127/71/34
f 130/1/1 131/2/1 129/3/1
f 132/4/2 133/5/2 131/2/2
f 134/6/3 135/7/3 133/5/3
f 136/8/4 137/9/4 135/7/4
f 138/10/5 139/11/5 137/9/5
f 140/12/6 141/13/6 139/11/6
f 142/14/7 143/15/7 141/13/7
f 144/16/8 145/17/8 143/15/8
f 146/18/9 147/19/9 145/17/9
f 148/20/10 149/21/10 147/19/10
f 150/22/11 151/23/11 149/21/11
f 152/24/12 153/25/12 151/23/12
f 154/26/13 155/27/13 153/25/13
f 156/28/14 157/29/14 155/27/14
f 158/30/15 159/31/15 157/29/15
f 160/32/16 161/33/16 159/31/16
f 162/34/17 163/35/17 161/33/17
f 164/36/18 165/37/18 163/35/18
f 166/38/19 167/39/19 165/37/19
f 168/40/20 169/41/20 167/39/20
f 170/42/21 171/43/21 169/41/21
f 172/44/22 173/45/22 171/43/22
f 174/46/23 175/47/23 173/45/23
f 176/48/24 177/49/24 175/47/24
f 178/50/25 179/51/25 177/49/25
f 180/52/26 181/53/26 179/51/26
f 182/54/27 183/55/27 181/53/27
f 184/56/28 185/57/28 183/55/28
f 186/58/29 187/59/29 185/57/29
f 188/60/30 189/61/30 187/59/30
f 166/62/31 150/63/31 134/64/31
f 190/65/32 191/66/32 189/61/32
f 192/67/33 129/68/33 191/66/33
f 159/69/34 175/70/34 191/71/34
f 2/1/1 4/4/1 3/2/1
f 4/4/2 6/6/2 5/5/2
f 6/6/3 8/8/3 7/7/3
f 8/8/4 10/10/4 9/9/4
f 10/10/5 12/12/5 11/11/5
f 12/12/6 14/14/6 13/13/6
f 14/14/7 16/16/7 15/15/7
f 16/16/8 18/18/8 17/17/8
f 18/18/9 20/20/9 19/19/9
f 20/20/10 22/22/10 21/21/10
f 22/22/11 24/24/11 23/23/11
f 24/24/12 26/26/12 25/25/12
f 26/26/13 28/28/13 27/27/13
f 28/28/14 30/30/14 29/29/14
f 30/30/15 32/32/15 31/31/15
f 32/32/16 34/34/16 33/33/16
f 34/34/17 36/36/17 35/35/17
f 36/36/18 38/38/18 37/37/18
f 38/38/19 40/40/19 39/39/19
f 40/40/20 42/42/20 41/41/20
f 42/42/21 44/44/21 43/43/21
f 44/44/22 46/46/22 45/45/22
f 46/46/23 48/48/23 47/47/23
f 48/48/24 50/50/24 49/49/24
f 50/50/25 52/52/25 51/51/25
f 52/52/26 54/54/26 53/53/26
f 54/54/27 56/56/27 55/55/27
f 56/56/28 58/58/28 57/57/28
f 58/58/29 60/60/29 59/59/29
f 60/60/30 62/65/30 61/61/30
f 6/64/31 4/72/31 2/73/31
f 2/73/31 64/74/31 62/75/31
f 62/75/31 60/76/31 58/77/31
f 58/77/31 56/78/31 54/79/31
f 54/79/31 52/80/31 50/81/31
f 50/81/31 48/82/31 46/83/31
f 46/83/31 44/84/31 42/85/31
f 42/85/31 40/86/31 38/62/31
f 38/62/31 36/87/31 34/88/31
f 34/88/31 32/89/31 30/90/31
f 30/90/31 28/91/31 26/92/31
f 26/92/31 24/93/31 22/63/31
f 22/63/31 20/94/31 18/95/31
f 18/95/31 16/96/31 14/97/31
f 14/97/31 12/98/31 10/99/31
f 10/99/31 8/100/31 6/64/31
f 6/64/31 2/73/31 62/75/31
f 62/75/31 58/77/31 54/79/31
f 54/79/31 50/81/31 46/83/31
f 46/83/31 42/85/31 38/62/31
f 38/62/31 34/88/31 30/90/31
f 30/90/31 26/92/31 22/63/31
f 22/63/31 18/95/31 14/97/31
f 14/97/31 10/99/31 6/64/31
f 6/64/31 62/75/31 54/79/31
f 54/79/31 46/83/31 38/62/31
f 38/62/31 30/90/31 22/63/31
f 22/63/31 14/97/31 6/64/31
f 6/64/31 54/79/31 38/62/31
f 62/65/32 64/67/32 63/66/32
f 64/67/33 2/101/33 1/68/33
f 63/71/34 1/102/34 3/103/34
f 3/103/34 5/104/34 7/105/34
f 7/105/34 9/106/34 11/107/34
f 11/107/34 13/108/34 15/109/34
f 15/109/34 17/110/34 19/111/34
f 19/111/34 21/112/34 23/113/34
f 23/113/34 25/114/34 27/115/34
f 27/115/34 29/116/34 31/69/34
f 31/69/34 33/117/34 35/118/34
f 35/118/34 37/119/34 39/120/34
f 39/120/34 41/121/34 43/122/34
f 43/122/34 45/123/34 47/70/34
f 47/70/34 49/124/34 51/125/34
f 51/125/34 53/126/34 55/127/34
f 55/127/34 57/128/34 59/129/34
f 59/129/34 61/130/34 63/71/34
f 63/71/34 3/103/34 7/105/34
f 7/105/34 11/107/34 15/109/34
f 15/109/34 19/111/34 23/113/34
f 23/113/34 27/115/34 31/69/34
f 31/69/34 35/118/34 39/120/34
f 39/120/34 43/122/34 47/70/34
f 47/70/34 51/125/34 55/127/34
f 55/127/34 59/129/34 63/71/34
f 63/71/34 7/105/34 15/109/34
f 15/109/34 23/113/34 31/69/34
f 31/69/34 39/120/34 47/70/34
f 47/70/34 55/127/34 63/71/34
f 63/71/34 15/109/34 31/69/34
f 66/1/1 68/4/1 67/2/1
f 68/4/2 70/6/2 69/5/2
f 70/6/3 72/8/3 71/7/3
f 72/8/4 74/10/4 73/9/4
f 74/10/5 76/12/5 75/11/5
f 76/12/6 78/14/6 77/13/6
f 78/14/7 80/16/7 79/15/7
f 80/16/8 82/18/8 81/17/8
f 82/18/9 84/20/9 83/19/9
f 84/20/10 86/22/10 85/21/10
f 86/22/11 88/24/11 87/23/11
f 88/24/12 90/26/12 89/25/12
f 90/26/13 92/28/13 91/27/13
f 92/28/14 94/30/14 93/29/14
f 94/30/15 96/32/15 95/31/15
f 96/32/16 98/34/16 97/33/16
f 98/34/17 100/36/17 99/35/17
f 100/36/18 102/38/18 101/37/18
f 102/38/19 104/40/19 103/39/19
f 104/40/20 106/42/20 105/41/20
f 106/42/21 108/44/21 107/43/21
f 108/44/22 110/46/22 109/45/22
f 110/46/23 112/48/23 111/47/23
f 112/48/24 114/50/24 113/49/24
f 114/50/25 116/52/25 115/51/25
f 116/52/26 118/54/26 117/53/26
f 118/54/27 120/56/27 119/55/27
f 120/56/28 122/58/28 121/57/28
f 122/58/29 124/60/29 123/59/29
f 124/60/30 126/65/30 125/61/30
f 70/64/31 68/72/31 66/73/31
f 66/73/31 128/74/31 126/75/31
f 126/75/31 124/76/31 122/77/31
f 122/77/31 120/78/31 118/79/31
f 118/79/31 116/80/31 114/81/31
f 114/81/31 112/82/31 110/83/31
f 110/83/31 108/84/31 106/85/31
f 106/85/31 104/86/31 102/62/31
f 102/62/31 100/87/31 98/88/31
f 98/88/31 96/89/31 94/90/31
f 94/90/31 92/91/31 90/92/31
f 90/92/31 88/93/31 86/63/31
f 86/63/31 84/94/31 82/95/31
f 82/95/31 80/96/31 78/97/31
f 78/97/31 76/98/31 74/99/31
f 74/99/31 72/100/31 70/64/31
f 70/64/31 66/73/31 126/75/31
f 126/75/31 122/77/31 118/79/31
f 118/79/31 114/81/31 110/83/31
f 110/83/31 106/85/31 102/62/31
f 102/62/31 98/88/31 94/90/31
f 94/90/31 90/92/31 86/63/31
f 86/63/31 82/95/31 78/97/31
f 78/97/31 74/99/31 70/64/31
f 70/64/31 126/75/31 118/79/31
f 118/79/31 110/83/31 102/62/31
f 102/62/31 94/90/31 86/63/31
f 86/63/31 78/97/31 70/64/31
f 70/64/31 118/79/31 102/62/31
f 126/65/32 128/67/32 127/66/32
f 128/67/33 66/101/33 65/68/33
f 127/71/34 65/102/34 67/103/34
f 67/103/34 69/104/34 71/105/34
f 71/105/34 73/106/34 75/107/34
f 75/107/34 77/108/34 79/109/34
f 79/109/34 81/110/34 83/111/34
f 83/111/34 85/112/34 87/113/34
f 87/113/34 89/114/34 91/115/34
f 91/115/34 93/116/34 95/69/34
f 95/69/34 97/117/34 99/118/34
f 99/118/34 101/119/34 103/120/34
f 103/120/34 105/121/34 107/122/34
f 107/122/34 109/123/34 111/70/34
f 111/70/34 113/124/34 115/125/34
f 115/125/34 117/126/34 119/127/34
f 119/127/34 121/128/34 123/129/34
f 123/129/34 125/130/34 127/71/34
f 127/71/34 67/103/34 71/105/34
f 71/105/34 75/107/34 79/109/34
f 79/109/34 83/111/34 87/113/34
f 87/113/34 91/115/34 95/69/34
f 95/69/34 99/118/34 103/120/34
f 103/120/34 107/122/34 111/70/34
f 111/70/34 115/125/34 119/127/34
f 119/127/34 123/129/34 127/71/34
f 127/71/34 71/105/34 79/109/34
f 79/109/34 87/113/34 95/69/34
f 95/69/34 103/120/34 111/70/34
f 111/70/34 119/127/34 127/71/34
f 127/71/34 79/109/34 95/69/34
f 130/1/1 132/4/1 131/2/1
f 132/4/2 134/6/2 133/5/2
f 134/6/3 136/8/3 135/7/3
f 136/8/4 138/10/4 137/9/4
f 138/10/5 140/12/5 139/11/5
f 140/12/6 142/14/6 141/13/6
f 142/14/7 144/16/7 143/15/7
f 144/16/8 146/18/8 145/17/8
f 146/18/9 148/20/9 147/19/9
f 148/20/10 150/22/10 149/21/10
f 150/22/11 152/24/11 151/23/11
f 152/24/12 154/26/12 153/25/12
f 154/26/13 156/28/13 155/27/13
f 156/28/14 158/30/14 157/29/14
f 158/30/15 160/32/15 159/31/15
f 160/32/16 162/34/16 161/33/16
f 162/34/17 164/36/17 163/35/17
f 164/36/18 166/38/18 165/37/18
f 166/38/19 168/40/19 167/39/19
f 168/40/20 170/42/20 169/41/20
f 170/42/21 172/44/21 171/43/21
f 172/44/22 174/46/22 173/45/22
f 174/46/23 176/48/23 175/47/23
f 176/48/24 178/50/24 177/49/24
f 178/50/25 180/52/25 179/51/25
f 180/52/26 182/54/26 181/53/26
f 182/54/27 184/56/27 183/55/27
f 184/56/28 186/58/28 185/57/28
f 186/58/29 188/60/29 187/59/29
f 188/60/30 190/65/30 189/61/30
f 134/64/31 132/72/31 130/73/31
f 130/73/31 192/74/31 190/75/31
f 190/75/31 188/76/31 186/77/31
f 186/77/31 184/78/31 182/79/31
f 182/79/31 180/80/31 178/81/31
f 178/81/31 176/82/31 174/83/31
f 174/83/31 172/84/31 170/85/31
f 170/85/31 168/86/31 166/62/31
f 166/62/31 164/87/31 162/88/31
f 162/88/31 160/89/31 158/90/31
f 158/90/31 156/91/31 154/92/31
f 154/92/31 152/93/31 150/63/31
f 150/63/31 148/94/31 146/95/31
f 146/95/31 144/96/31 142/97/31
f 142/97/31 140/98/31 138/99/31
f 138/99/31 136/100/31 134/64/31
f 134/64/31 130/73/31 190/75/31
f 190/75/31 186/77/31 182/79/31
f 182/79/31 178/81/31 174/83/31
f 174/83/31 170/85/31 166/62/31
f 166/62/31 162/88/31 158/90/31
f 158/90/31 154/92/31 150/63/31
f 150/63/31 146/95/31 142/97/31
f 142/97/31 138/99/31 134/64/31
f 134/64/31 190/75/31 182/79/31
f 182/79/31 174/83/31 166/62/31
f 166/62/31 158/90/31 150/63/31
f 150/63/31 142/97/31 134/64/31
f 134/64/31 182/79/31 166/62/31
f 190/65/32 192/67/32 191/66/32
f 192/67/33 130/101/33 129/68/33
f 191/71/34 129/102/34 131/103/34
f 131/103/34 133/104/34 135/105/34
f 135/105/34 137/106/34 139/107/34
f 139/107/34 141/108/34 143/109/34
f 143/109/34 145/110/34 147/111/34
f 147/111/34 149/112/34 151/113/34
f 151/113/34 153/114/34 155/115/34
f 155/115/34 157/116/34 159/69/34
f 159/69/34 161/117/34 163/118/34
f 163/118/34 165/119/34 167/120/34
f 167/120/34 169/121/34 171/122/34
f 171/122/34 173/123/34 175/70/34
f 175/70/34 177/124/34 179/125/34
f 179/125/34 181/126/34 183/127/34
f 183/127/34 185/128/34 187/129/34
f 187/129/34 189/130/34 191/71/34
f 191/71/34 131/103/34 135/105/34
f 135/105/34 139/107/34 143/109/34
f 143/109/34 147/111/34 151/113/34
f 151/113/34 155/115/34 159/69/34
f 159/69/34 163/118/34 167/120/34
f 167/120/34 171/122/34 175/70/34
f 175/70/34 179/125/34 183/127/34
f 183/127/34 187/129/34 191/71/34
f 191/71/34 135/105/34 143/109/34
f 143/109/34 151/113/34 159/69/34
f 159/69/34 167/120/34 175/70/34
f 175/70/34 183/127/34 191/71/34
f 191/71/34 143/109/34 159/69/34
