# Blender 5.0.0
# www.blender.org
mtllib WaterBottle.mtl
o Cylinder
v 0.000000 -0.095216 -0.055166
v 0.000000 0.095216 -0.055166
v 0.010762 -0.095216 -0.054106
v 0.010762 0.095216 -0.054106
v 0.021111 -0.095216 -0.050967
v 0.021111 0.095216 -0.050967
v 0.030649 -0.095216 -0.045869
v 0.030649 0.095216 -0.045869
v 0.039008 -0.095216 -0.039008
v 0.039008 0.095216 -0.039008
v 0.045869 -0.095216 -0.030649
v 0.045869 0.095216 -0.030649
v 0.050967 -0.095216 -0.021111
v 0.050967 0.095216 -0.021111
v 0.054106 -0.095216 -0.010762
v 0.054106 0.095216 -0.010762
v 0.055166 -0.095216 0.000000
v 0.055166 0.095216 0.000000
v 0.054106 -0.095216 0.010762
v 0.054106 0.095216 0.010762
v 0.050967 -0.095216 0.021111
v 0.050967 0.095216 0.021111
v 0.045869 -0.095216 0.030649
v 0.045869 0.095216 0.030649
v 0.039008 -0.095216 0.039008
v 0.039008 0.095216 0.039008
v 0.030649 -0.095216 0.045869
v 0.030649 0.095216 0.045869
v 0.021111 -0.095216 0.050967
v 0.021111 0.095216 0.050967
v 0.010762 -0.095216 0.054106
v 0.010762 0.095216 0.054106
v 0.000000 -0.095216 0.055166
v 0.000000 0.095216 0.055166
v -0.010762 -0.095216 0.054106
v -0.010762 0.095216 0.054106
v -0.021111 -0.095216 0.050967
v -0.021111 0.095216 0.050967
v -0.030649 -0.095216 0.045869
v -0.030649 0.095216 0.045869
v -0.039008 -0.095216 0.039008
v -0.039008 0.095216 0.039008
v -0.045869 -0.095216 0.030649
v -0.045869 0.095216 0.030649
v -0.050967 -0.095216 0.021111
v -0.050967 0.095216 0.021111
v -0.054106 -0.095216 0.010762
v -0.054106 0.095216 0.010762
v -0.055166 -0.095216 0.000000
v -0.055166 0.095216 0.000000
v -0.054106 -0.095216 -0.010762
v -0.054106 0.095216 -0.010762
v -0.050967 -0.095216 -0.021111
v -0.050967 0.095216 -0.021111
v -0.045869 -0.095216 -0.030649
v -0.045869 0.095216 -0.030649
v -0.039008 -0.095216 -0.039008
v -0.039008 0.095216 -0.039008
v -0.030649 -0.095216 -0.045869
v -0.030649 0.095216 -0.045869
v -0.021111 -0.095216 -0.050967
v -0.021111 0.095216 -0.050967
v -0.010762 -0.095216 -0.054106
v -0.010762 0.095216 -0.054106
v 0.008763 0.137788 -0.044052
v 0.000000 0.137788 -0.044915
v 0.017188 0.137788 -0.041496
v 0.024954 0.137788 -0.037346
v 0.031760 0.137788 -0.031760
v 0.037346 0.137788 -0.024954
v 0.041496 0.137788 -0.017188
v 0.044052 0.137788 -0.008763
v 0.044915 0.137788 -0.000000
v 0.044052 0.137788 0.008763
v 0.041496 0.137788 0.017188
v 0.037346 0.137788 0.024954
v 0.031760 0.137788 0.031760
v 0.024954 0.137788 0.037346
v 0.017188 0.137788 0.041496
v 0.008763 0.137788 0.044052
v 0.000000 0.137788 0.044915
v -0.008763 0.137788 0.044052
v -0.017188 0.137788 0.041496
v -0.024954 0.137788 0.037346
v -0.031760 0.137788 0.031760
v -0.037346 0.137788 0.024954
v -0.041496 0.137788 0.017188
v -0.044052 0.137788 0.008763
v -0.044915 0.137788 -0.000000
v -0.044052 0.137788 -0.008763
v -0.041496 0.137788 -0.017188
v -0.037346 0.137788 -0.024954
v -0.031760 0.137788 -0.031760
v -0.024954 0.137788 -0.037346
v -0.017188 0.137788 -0.041496
v -0.008763 0.137788 -0.044052
v 0.006462 0.165897 -0.032485
v 0.000000 0.165897 -0.033122
v 0.012675 0.165897 -0.030600
v 0.018401 0.165897 -0.027540
v 0.023421 0.165897 -0.023421
v 0.027540 0.165897 -0.018401
v 0.030600 0.165897 -0.012675
v 0.032485 0.165897 -0.006462
v 0.033122 0.165897 -0.000000
v 0.032485 0.165897 0.006462
v 0.030600 0.165897 0.012675
v 0.027540 0.165897 0.018401
v 0.023421 0.165897 0.023421
v 0.018401 0.165897 0.027540
v 0.012675 0.165897 0.030600
v 0.006462 0.165897 0.032485
v 0.000000 0.165897 0.033122
v -0.006462 0.165897 0.032485
v -0.012675 0.165897 0.030600
v -0.018401 0.165897 0.027540
v -0.023421 0.165897 0.023421
v -0.027540 0.165897 0.018401
v -0.030600 0.165897 0.012675
v -0.032485 0.165897 0.006462
v -0.033122 0.165897 -0.000000
v -0.032485 0.165897 -0.006462
v -0.030600 0.165897 -0.012675
v -0.027540 0.165897 -0.018401
v -0.023421 0.165897 -0.023421
v -0.018401 0.165897 -0.027540
v -0.012675 0.165897 -0.030600
v -0.006462 0.165897 -0.032485
v 0.004618 0.177431 -0.023214
v 0.000000 0.177431 -0.023669
v 0.009058 0.177431 -0.021867
v 0.013150 0.177431 -0.019680
v 0.016737 0.177431 -0.016737
v 0.019680 0.177431 -0.013150
v 0.021867 0.177431 -0.009058
v 0.023214 0.177431 -0.004618
v 0.023669 0.177431 -0.000000
v 0.023214 0.177431 0.004618
v 0.021867 0.177431 0.009058
v 0.019680 0.177431 0.013150
v 0.016737 0.177431 0.016737
v 0.013150 0.177431 0.019680
v 0.009058 0.177431 0.021867
v 0.004618 0.177431 0.023214
v 0.000000 0.177431 0.023669
v -0.004618 0.177431 0.023214
v -0.009058 0.177431 0.021867
v -0.013150 0.177431 0.019680
v -0.016737 0.177431 0.016737
v -0.019680 0.177431 0.013150
v -0.021867 0.177431 0.009058
v -0.023214 0.177431 0.004618
v -0.023669 0.177431 -0.000000
v -0.023214 0.177431 -0.004618
v -0.021867 0.177431 -0.009058
v -0.019680 0.177431 -0.013150
v -0.016737 0.177431 -0.016737
v -0.013150 0.177431 -0.019680
v -0.009058 0.177431 -0.021867
v -0.004618 0.177431 -0.023214
v 0.004618 0.204830 -0.023214
v 0.000000 0.204830 -0.023669
v 0.009058 0.204830 -0.021867
v 0.013150 0.204830 -0.019680
v 0.016737 0.204830 -0.016737
v 0.019680 0.204830 -0.013150
v 0.021867 0.204830 -0.009058
v 0.023214 0.204830 -0.004618
v 0.023669 0.204830 -0.000000
v 0.023214 0.204830 0.004618
v 0.021867 0.204830 0.009058
v 0.019680 0.204830 0.013150
v 0.016737 0.204830 0.016737
v 0.013150 0.204830 0.019680
v 0.009058 0.204830 0.021867
v 0.004618 0.204830 0.023214
v 0.000000 0.204830 0.023669
v -0.004618 0.204830 0.023214
v -0.009058 0.204830 0.021867
v -0.013150 0.204830 0.019680
v -0.016737 0.204830 0.016737
v -0.019680 0.204830 0.013150
v -0.021867 0.204830 0.009058
v -0.023214 0.204830 0.004618
v -0.023669 0.204830 -0.000000
v -0.023214 0.204830 -0.004618
v -0.021867 0.204830 -0.009058
v -0.019680 0.204830 -0.013150
v -0.016737 0.204830 -0.016737
v -0.013150 0.204830 -0.019680
v -0.009058 0.204830 -0.021867
v -0.004618 0.204830 -0.023214
vn 0.0980 -0.0000 -0.9952
vn 0.2903 -0.0000 -0.9569
vn 0.4714 -0.0000 -0.8819
vn 0.6344 -0.0000 -0.7730
vn 0.7730 -0.0000 -0.6344
vn 0.8819 -0.0000 -0.4714
vn 0.9569 -0.0000 -0.2903
vn 0.9952 -0.0000 -0.0980
vn 0.9952 -0.0000 0.0980
vn 0.9569 -0.0000 0.2903
vn 0.8819 -0.0000 0.4714
vn 0.7730 -0.0000 0.6344
vn 0.6344 -0.0000 0.7730
vn 0.4714 -0.0000 0.8819
vn 0.2903 -0.0000 0.9569
vn 0.0980 -0.0000 0.9952
vn -0.0980 -0.0000 0.9952
vn -0.2903 -0.0000 0.9569
vn -0.4714 -0.0000 0.8819
vn -0.6344 -0.0000 0.7730
vn -0.7730 -0.0000 0.6344
vn -0.8819 -0.0000 0.4714
vn -0.9569 -0.0000 0.2903
vn -0.9952 -0.0000 0.0980
vn -0.9952 -0.0000 -0.0980
vn -0.9569 -0.0000 -0.2903
vn -0.8819 -0.0000 -0.4714
vn -0.7730 -0.0000 -0.6344
vn -0.6344 -0.0000 -0.7730
vn -0.4714 -0.0000 -0.8819
vn 0.6169 0.2330 -0.7517
vn -0.2903 -0.0000 -0.9569
vn -0.0980 -0.0000 -0.9952
vn -0.0000 -1.0000 -0.0000
vn 0.2679 0.3853 0.8831
vn 0.6169 0.2330 0.7517
vn -0.8576 0.2330 0.4584
vn -0.2823 0.2330 -0.9306
vn 0.9678 0.2330 0.0953
vn -0.2823 0.2330 0.9306
vn -0.8576 0.2330 -0.4584
vn 0.7517 0.2330 -0.6169
vn 0.4584 0.2330 0.8576
vn -0.9306 0.2330 0.2823
vn 0.0953 0.2330 -0.9678
vn -0.0953 0.2330 -0.9678
vn 0.9306 0.2330 0.2823
vn -0.4584 0.2330 0.8576
vn -0.7517 0.2330 -0.6169
vn 0.8576 0.2330 -0.4584
vn 0.2823 0.2330 0.9306
vn -0.9678 0.2330 0.0953
vn 0.2823 0.2330 -0.9306
vn 0.8576 0.2330 0.4584
vn -0.6169 0.2330 0.7517
vn -0.6169 0.2330 -0.7517
vn 0.9306 0.2330 -0.2823
vn 0.0953 0.2330 0.9678
vn -0.9678 0.2330 -0.0953
vn 0.4584 0.2330 -0.8576
vn 0.7517 0.2330 0.6169
vn -0.7517 0.2330 0.6169
vn -0.4584 0.2330 -0.8576
vn 0.9678 0.2330 -0.0953
vn -0.0953 0.2330 0.9678
vn -0.9306 0.2330 -0.2823
vn -0.2250 0.6320 0.7416
vn 0.2679 0.3853 -0.8831
vn -0.5854 0.3853 -0.7133
vn 0.0904 0.3853 0.9183
vn 0.4350 0.3853 -0.8138
vn -0.4350 0.3853 -0.8138
vn -0.0904 0.3853 0.9183
vn 0.5854 0.3853 -0.7133
vn -0.2679 0.3853 -0.8831
vn -0.2679 0.3853 0.8831
vn 0.7133 0.3853 -0.5854
vn -0.0904 0.3853 -0.9183
vn -0.4350 0.3853 0.8138
vn 0.8138 0.3853 -0.4350
vn -0.5854 0.3853 0.7133
vn 0.8831 0.3853 -0.2679
vn -0.7133 0.3853 0.5854
vn 0.9183 0.3853 -0.0904
vn -0.8138 0.3853 0.4350
vn 0.9183 0.3853 0.0904
vn -0.8831 0.3853 0.2679
vn 0.8831 0.3853 0.2679
vn -0.9183 0.3853 0.0904
vn 0.8138 0.3853 0.4350
vn -0.9183 0.3853 -0.0904
vn 0.7133 0.3853 0.5854
vn -0.8831 0.3853 -0.2679
vn 0.5854 0.3853 0.7133
vn -0.8138 0.3853 -0.4350
vn 0.4350 0.3853 0.8138
vn 0.0904 0.3853 -0.9183
vn -0.7133 0.3853 -0.5854
vn 0.5990 0.6320 -0.4916
vn -0.0760 0.6320 -0.7712
vn -0.3653 0.6320 0.6834
vn 0.6834 0.6320 -0.3653
vn -0.4916 0.6320 0.5990
vn 0.7416 0.6320 -0.2250
vn -0.5990 0.6320 0.4916
vn 0.7712 0.6320 -0.0760
vn -0.6834 0.6320 0.3653
vn 0.7712 0.6320 0.0760
vn -0.7416 0.6320 0.2250
vn 0.7416 0.6320 0.2250
vn -0.7712 0.6320 0.0760
vn 0.6834 0.6320 0.3653
vn -0.7712 0.6320 -0.0760
vn 0.5990 0.6320 0.4916
vn -0.7416 0.6320 -0.2250
vn 0.4916 0.6320 0.5990
vn -0.6834 0.6320 -0.3653
vn 0.3653 0.6320 0.6834
vn 0.0760 0.6320 -0.7712
vn -0.5990 0.6320 -0.4916
vn 0.2250 0.6320 0.7416
vn 0.2250 0.6320 -0.7416
vn -0.4916 0.6320 -0.5990
vn 0.0760 0.6320 0.7712
vn 0.3653 0.6320 -0.6834
vn -0.3653 0.6320 -0.6834
vn -0.0760 0.6320 0.7712
vn 0.4916 0.6320 -0.5990
vn -0.2250 0.6320 -0.7416
vn -0.0000 1.0000 -0.0000
vt 0.236021 0.144661
vt 0.263081 0.471239
vt 0.236021 0.473674
vt 0.263081 0.142226
vt 0.286094 0.468141
vt 0.583211 0.627917
vt 0.610271 0.959364
vt 0.583211 0.956930
vt 0.610271 0.630351
vt 0.640339 0.961041
vt 0.640339 0.632028
vt 0.672259 0.961896
vt 0.672259 0.632883
vt 0.704805 0.961896
vt 0.704805 0.632883
vt 0.736725 0.961041
vt 0.736725 0.632028
vt 0.766792 0.959364
vt 0.583211 0.140366
vt 0.610271 0.471813
vt 0.583211 0.469379
vt 0.610271 0.142800
vt 0.640339 0.473490
vt 0.640339 0.144477
vt 0.672259 0.474345
vt 0.672259 0.145332
vt 0.704805 0.474345
vt 0.704805 0.145332
vt 0.736725 0.473490
vt 0.736725 0.144477
vt 0.766792 0.471813
vt 0.766792 0.142800
vt 0.793853 0.469379
vt 0.308785 0.142226
vt 0.335845 0.473674
vt 0.308785 0.471239
vt 0.335845 0.144661
vt 0.365913 0.475351
vt 0.365913 0.146338
vt 0.397833 0.476206
vt 0.397833 0.147193
vt 0.430378 0.476206
vt 0.430378 0.147193
vt 0.462298 0.475351
vt 0.462298 0.146338
vt 0.492366 0.473674
vt 0.492366 0.144661
vt 0.519426 0.471239
vt 0.519426 0.142226
vt 0.542439 0.468141
vt 0.542439 0.139128
vt 0.560521 0.464497
vt 0.011345 0.135484
vt 0.029426 0.468141
vt 0.011345 0.464497
vt 0.029426 0.139128
vt 0.052439 0.471239
vt 0.052439 0.142226
vt 0.079500 0.473674
vt 0.079500 0.144661
vt 0.109568 0.475351
vt 0.109568 0.146338
vt 0.141488 0.476206
vt 0.141488 0.147193
vt 0.174033 0.476206
vt 0.649294 0.554502
vt 0.174033 0.147193
vt 0.205953 0.475351
vt 0.205953 0.146338
vt 0.281885 0.535781
vt 0.304898 0.769436
vt 0.071243 0.792449
vt 0.774283 0.063603
vt 0.735520 0.012807
vt 0.751767 0.011345
vt 0.727770 0.066951
vt 0.499857 0.065464
vt 0.196998 0.068811
vt 0.624813 0.065586
vt 0.400857 0.069508
vt 0.094042 0.067446
vt 0.675283 0.555198
vt 0.752251 0.065586
vt 0.518593 0.062941
vt 0.221479 0.067446
vt 0.243511 0.065464
vt 0.649294 0.066951
vt 0.427355 0.069508
vt 0.118522 0.068811
vt 0.701781 0.555198
vt 0.793853 0.140366
vt 0.533315 0.059974
vt 0.560521 0.135484
vt 0.262248 0.062941
vt 0.286094 0.139128
vt 0.675283 0.067647
vt 0.453343 0.068811
vt 0.144511 0.069508
vt 0.727770 0.554502
vt 0.350387 0.067446
vt 0.053272 0.062941
vt 0.624813 0.553137
vt 0.701781 0.067647
vt 0.477824 0.067446
vt 0.171009 0.069508
vt 0.752251 0.553137
vt 0.766792 0.630351
vt 0.374868 0.068811
vt 0.072009 0.065464
vt 0.956468 0.546149
vt 0.926069 0.558719
vt 0.940846 0.534412
vt 0.584044 0.548631
vt 0.625297 0.498896
vt 0.602781 0.551154
vt 0.147990 0.016187
vt 0.328354 0.065464
vt 0.367118 0.014667
vt 0.641544 0.500358
vt 0.167530 0.016187
vt 0.385171 0.015674
vt 0.659597 0.501365
vt 0.186695 0.015674
vt 0.404335 0.016187
vt 0.678762 0.501878
vt 0.204748 0.014667
vt 0.423876 0.016187
vt 0.698302 0.501878
vt 0.443040 0.015674
vt 0.717467 0.501365
vt 0.461093 0.014667
vt 0.735520 0.500358
vt 0.477340 0.013206
vt 0.602781 0.063603
vt 0.641544 0.012807
vt 0.491157 0.011345
vt 0.659597 0.013814
vt 0.832040 0.497036
vt 0.830192 0.539156
vt 0.809227 0.510516
vt 0.678762 0.014327
vt 0.789483 0.528188
vt 0.815632 0.552187
vt 0.698302 0.014327
vt 0.094526 0.013206
vt 0.717467 0.013814
vt 0.110773 0.014667
vt 0.220995 0.013206
vt 0.128825 0.015674
vt 0.415321 0.706882
vt 0.367627 0.692699
vt 0.414947 0.693966
vt 0.873828 0.718092
vt 0.892120 0.690752
vt 0.893338 0.719172
vt 0.798697 0.661641
vt 0.831592 0.661661
vt 0.808638 0.678463
vt 0.913484 0.552670
vt 0.923234 0.525947
vt 0.912685 0.716426
vt 0.905945 0.688789
vt 0.904310 0.521081
vt 0.899960 0.549193
vt 0.919121 0.684167
vt 0.931123 0.709958
vt 0.886018 0.548421
vt 0.884799 0.520000
vt 0.947946 0.700017
vt 0.931143 0.677063
vt 0.865453 0.522747
vt 0.872193 0.550384
vt 0.962506 0.686985
vt 0.941548 0.667751
vt 0.859016 0.555006
vt 0.847014 0.529215
vt 0.974244 0.671363
vt 0.949936 0.656587
vt 0.846995 0.562110
vt 0.955985 0.644001
vt 0.982708 0.653752
vt 0.836590 0.571422
vt 0.987574 0.634827
vt 0.959462 0.630478
vt 0.828202 0.582586
vt 0.803894 0.567809
vt 0.960234 0.616535
vt 0.988655 0.615317
vt 0.822153 0.595171
vt 0.795429 0.585421
vt 0.985908 0.595971
vt 0.958272 0.602710
vt 0.840905 0.672065
vt 0.821670 0.693023
vt 0.790563 0.604346
vt 0.818676 0.608695
vt 0.953650 0.589534
vt 0.979440 0.577532
vt 0.837292 0.704761
vt 0.852068 0.680453
vt 0.817903 0.622637
vt 0.789483 0.623856
vt 0.969500 0.560709
vt 0.946546 0.577512
vt 0.864654 0.686502
vt 0.854903 0.713226
vt 0.792229 0.643202
vt 0.819866 0.636463
vt 0.937233 0.567107
vt 0.878178 0.689980
vt 0.824488 0.649639
vt 0.480550 0.514722
vt 0.490423 0.614972
vt 0.390173 0.624846
vt 0.790216 0.818264
vt 0.838440 0.830527
vt 0.791107 0.831154
vt 0.366893 0.681065
vt 0.414214 0.682332
vt 0.839638 0.842122
vt 0.792305 0.842750
vt 0.365829 0.671159
vt 0.413149 0.672426
vt 0.558882 0.742763
vt 0.512439 0.729245
vt 0.559772 0.729873
vt 0.364473 0.663362
vt 0.411794 0.664630
vt 0.512987 0.715556
vt 0.560321 0.716184
vt 0.441538 0.664630
vt 0.487503 0.671159
vt 0.440183 0.672426
vt 0.513173 0.701593
vt 0.560506 0.702221
vt 0.486439 0.681065
vt 0.439118 0.682332
vt 0.560321 0.688522
vt 0.512987 0.687894
vt 0.485705 0.692699
vt 0.438385 0.693966
vt 0.512439 0.674985
vt 0.559772 0.675613
vt 0.440183 0.761098
vt 0.488858 0.771409
vt 0.441538 0.772677
vt 0.485331 0.705614
vt 0.438011 0.706882
vt 0.511549 0.663362
vt 0.558882 0.663990
vt 0.792305 0.742490
vt 0.838440 0.751753
vt 0.791107 0.752381
vt 0.485331 0.719315
vt 0.438011 0.720582
vt 0.413149 0.761098
vt 0.364473 0.771409
vt 0.365829 0.759831
vt 0.837549 0.763377
vt 0.790216 0.764004
vt 0.485705 0.733273
vt 0.438385 0.734541
vt 0.366893 0.746954
vt 0.414214 0.748221
vt 0.837001 0.776286
vt 0.789668 0.776913
vt 0.486438 0.746954
vt 0.439118 0.748221
vt 0.367627 0.733273
vt 0.414947 0.734541
vt 0.836816 0.789985
vt 0.789483 0.790612
vt 0.487503 0.759831
vt 0.368000 0.719315
vt 0.415321 0.720582
vt 0.837001 0.803947
vt 0.789668 0.804575
vt 0.368000 0.705614
vt 0.837549 0.817636
vt 0.048230 0.769436
vt 0.030149 0.742376
vt 0.017694 0.712308
vt 0.011345 0.680388
vt 0.011345 0.647842
vt 0.017694 0.615923
vt 0.030149 0.585855
vt 0.048230 0.558794
vt 0.071243 0.535781
vt 0.098304 0.517700
vt 0.128372 0.505245
vt 0.160291 0.498896
vt 0.192837 0.498896
vt 0.224757 0.505245
vt 0.254825 0.517700
vt 0.304898 0.558794
vt 0.322979 0.585855
vt 0.335434 0.615923
vt 0.341783 0.647842
vt 0.341783 0.680388
vt 0.335434 0.712308
vt 0.322979 0.742376
vt 0.281885 0.792449
vt 0.254825 0.810530
vt 0.224757 0.822985
vt 0.192837 0.829334
vt 0.160291 0.829334
vt 0.128372 0.822985
vt 0.098304 0.810530
vt 0.038551 0.059974
vt 0.611480 0.497036
vt 0.350871 0.013206
vt 0.625297 0.011345
vt 0.080709 0.011345
vt 0.380299 0.614972
vt 0.372541 0.603362
vt 0.367198 0.590461
vt 0.364473 0.576766
vt 0.364473 0.562802
vt 0.367198 0.549107
vt 0.372541 0.536206
vt 0.380299 0.524596
vt 0.390173 0.514722
vt 0.401783 0.506964
vt 0.414684 0.501620
vt 0.428380 0.498896
vt 0.442343 0.498896
vt 0.456039 0.501620
vt 0.468939 0.506964
vt 0.490424 0.524596
vt 0.498181 0.536206
vt 0.503525 0.549107
vt 0.506249 0.562802
vt 0.506249 0.576766
vt 0.503525 0.590461
vt 0.498181 0.603362
vt 0.480550 0.624846
vt 0.468939 0.632604
vt 0.456038 0.637948
vt 0.442343 0.640672
vt 0.428379 0.640672
vt 0.414684 0.637948
vt 0.401783 0.632604
vt 0.511549 0.742135
vt 0.488858 0.663362
vt 0.839638 0.741863
vt 0.411794 0.772677
s 0
usemtl Material.001
f 2/1/1 3/2/1 1/3/1
f 4/4/2 5/5/2 3/2/2
f 6/6/3 7/7/3 5/8/3
f 8/9/4 9/10/4 7/7/4
f 10/11/5 11/12/5 9/10/5
f 12/13/6 13/14/6 11/12/6
f 14/15/7 15/16/7 13/14/7
f 16/17/8 17/18/8 15/16/8
f 18/19/9 19/20/9 17/21/9
f 20/22/10 21/23/10 19/20/10
f 22/24/11 23/25/11 21/23/11
f 24/26/12 25/27/12 23/25/12
f 26/28/13 27/29/13 25/27/13
f 28/30/14 29/31/14 27/29/14
f 30/32/15 31/33/15 29/31/15
f 32/34/16 33/35/16 31/36/16
f 34/37/17 35/38/17 33/35/17
f 36/39/18 37/40/18 35/38/18
f 38/41/19 39/42/19 37/40/19
f 40/43/20 41/44/20 39/42/20
f 42/45/21 43/46/21 41/44/21
f 44/47/22 45/48/22 43/46/22
f 46/49/23 47/50/23 45/48/23
f 48/51/24 49/52/24 47/50/24
f 50/53/25 51/54/25 49/55/25
f 52/56/26 53/57/26 51/54/26
f 54/58/27 55/59/27 53/57/27
f 56/60/28 57/61/28 55/59/28
f 58/62/29 59/63/29 57/61/29
f 60/64/30 61/65/30 59/63/30
f 8/9/31 69/66/31 10/11/31
f 62/67/32 63/68/32 61/65/32
f 64/69/33 1/3/33 63/68/33
f 31/70/34 47/71/34 63/72/34
f 80/73/35 111/74/35 112/75/35
f 26/28/36 78/76/36 28/30/36
f 44/47/37 87/77/37 46/49/37
f 62/67/38 96/78/38 64/69/38
f 18/19/39 74/79/39 20/22/39
f 36/39/40 83/80/40 38/41/40
f 54/58/41 92/81/41 56/60/41
f 10/11/42 70/82/42 12/13/42
f 28/30/43 79/83/43 30/32/43
f 46/49/44 88/84/44 48/51/44
f 4/4/45 66/85/45 65/86/45
f 64/69/46 66/85/46 2/1/46
f 20/22/47 75/87/47 22/24/47
f 38/41/48 84/88/48 40/43/48
f 56/60/49 93/89/49 58/62/49
f 12/13/50 71/90/50 14/15/50
f 30/32/51 80/73/51 32/91/51
f 48/51/52 89/92/52 50/93/52
f 4/4/53 67/94/53 6/95/53
f 22/24/54 76/96/54 24/26/54
f 40/43/55 85/97/55 42/45/55
f 58/62/56 94/98/56 60/64/56
f 14/15/57 72/99/57 16/17/57
f 32/34/58 81/100/58 34/37/58
f 50/53/59 90/101/59 52/56/59
f 6/6/60 68/102/60 8/9/60
f 24/26/61 77/103/61 26/28/61
f 42/45/62 86/104/62 44/47/62
f 60/64/63 95/105/63 62/67/63
f 16/17/64 73/106/64 18/107/64
f 34/37/65 82/108/65 36/39/65
f 52/56/66 91/109/66 54/58/66
f 114/110/67 147/111/67 115/112/67
f 65/113/68 99/114/68 67/115/68
f 93/89/69 126/116/69 94/98/69
f 80/117/70 113/118/70 81/100/70
f 67/115/71 100/119/71 68/102/71
f 95/105/72 126/116/72 127/120/72
f 81/100/73 114/121/73 82/108/73
f 68/102/74 101/122/74 69/66/74
f 95/105/75 128/123/75 96/78/75
f 82/108/76 115/124/76 83/80/76
f 69/66/77 102/125/77 70/82/77
f 96/78/78 98/126/78 66/85/78
f 83/80/79 116/127/79 84/88/79
f 70/82/80 103/128/80 71/90/80
f 84/88/81 117/129/81 85/97/81
f 71/90/82 104/130/82 72/99/82
f 85/97/83 118/131/83 86/104/83
f 72/99/84 105/132/84 73/106/84
f 87/77/85 118/131/85 119/133/85
f 73/134/86 106/135/86 74/79/86
f 87/77/87 120/136/87 88/84/87
f 74/79/88 107/137/88 75/87/88
f 88/138/89 121/139/89 89/140/89
f 75/87/90 108/141/90 76/96/90
f 90/142/91 121/139/91 122/143/91
f 76/96/92 109/144/92 77/103/92
f 90/101/93 123/145/93 91/109/93
f 77/103/94 110/146/94 78/76/94
f 91/109/95 124/147/95 92/81/95
f 78/76/96 111/74/96 79/83/96
f 66/85/97 97/148/97 65/86/97
f 92/81/98 125/149/98 93/89/98
f 149/150/21 182/151/21 150/152/21
f 101/153/99 134/154/99 102/155/99
f 128/156/100 130/157/100 98/158/100
f 115/112/101 148/159/101 116/160/101
f 103/161/102 134/154/102 135/162/102
f 117/163/103 148/159/103 149/164/103
f 103/161/104 136/165/104 104/166/104
f 117/163/105 150/167/105 118/168/105
f 105/169/106 136/165/106 137/170/106
f 119/171/107 150/167/107 151/172/107
f 106/173/108 137/170/108 138/174/108
f 119/171/109 152/175/109 120/176/109
f 107/177/110 138/174/110 139/178/110
f 120/176/111 153/179/111 121/139/111
f 107/177/112 140/180/112 108/181/112
f 121/139/113 154/182/113 122/143/113
f 109/183/114 140/180/114 141/184/114
f 122/143/115 155/185/115 123/186/115
f 109/183/116 142/187/116 110/188/116
f 123/186/117 156/189/117 124/190/117
f 111/191/118 142/187/118 143/192/118
f 98/158/119 129/193/119 97/194/119
f 125/195/120 156/189/120 157/196/120
f 111/191/121 144/197/121 112/198/121
f 99/199/122 129/193/122 131/200/122
f 125/195/123 158/201/123 126/202/123
f 113/203/124 144/197/124 145/204/124
f 99/199/125 132/205/125 100/206/125
f 127/207/126 158/201/126 159/208/126
f 114/110/127 145/204/127 146/209/127
f 101/153/128 132/205/128 133/210/128
f 128/156/129 159/208/129 160/211/129
f 179/212/130 171/213/130 163/214/130
f 136/215/8 169/216/8 137/217/8
f 150/152/22 183/218/22 151/219/22
f 137/217/9 170/220/9 138/221/9
f 151/219/23 184/222/23 152/223/23
f 138/224/10 171/225/10 139/226/10
f 152/223/24 185/227/24 153/228/24
f 139/226/11 172/229/11 140/230/11
f 153/231/25 186/232/25 154/233/25
f 140/230/12 173/234/12 141/235/12
f 154/233/26 187/236/26 155/237/26
f 142/238/13 173/234/13 174/239/13
f 155/237/27 188/240/27 156/241/27
f 142/238/14 175/242/14 143/243/14
f 130/244/1 161/245/1 129/246/1
f 156/241/28 189/247/28 157/248/28
f 143/243/15 176/249/15 144/250/15
f 129/251/2 163/252/2 131/253/2
f 157/248/29 190/254/29 158/255/29
f 145/256/16 176/257/16 177/258/16
f 131/253/3 164/259/3 132/260/3
f 158/255/30 191/261/30 159/262/30
f 145/256/17 178/263/17 146/264/17
f 132/260/4 165/265/4 133/266/4
f 159/262/32 192/267/32 160/268/32
f 146/264/18 179/269/18 147/270/18
f 133/266/5 166/271/5 134/272/5
f 160/268/33 162/273/33 130/244/33
f 147/270/19 180/274/19 148/275/19
f 134/272/6 167/276/6 135/277/6
f 148/275/20 181/278/20 149/150/20
f 135/277/7 168/279/7 136/215/7
f 2/1/1 4/4/1 3/2/1
f 4/4/2 6/95/2 5/5/2
f 6/6/3 8/9/3 7/7/3
f 8/9/4 10/11/4 9/10/4
f 10/11/5 12/13/5 11/12/5
f 12/13/6 14/15/6 13/14/6
f 14/15/7 16/17/7 15/16/7
f 16/17/8 18/107/8 17/18/8
f 18/19/9 20/22/9 19/20/9
f 20/22/10 22/24/10 21/23/10
f 22/24/11 24/26/11 23/25/11
f 24/26/12 26/28/12 25/27/12
f 26/28/13 28/30/13 27/29/13
f 28/30/14 30/32/14 29/31/14
f 30/32/15 32/91/15 31/33/15
f 32/34/16 34/37/16 33/35/16
f 34/37/17 36/39/17 35/38/17
f 36/39/18 38/41/18 37/40/18
f 38/41/19 40/43/19 39/42/19
f 40/43/20 42/45/20 41/44/20
f 42/45/21 44/47/21 43/46/21
f 44/47/22 46/49/22 45/48/22
f 46/49/23 48/51/23 47/50/23
f 48/51/24 50/93/24 49/52/24
f 50/53/25 52/56/25 51/54/25
f 52/56/26 54/58/26 53/57/26
f 54/58/27 56/60/27 55/59/27
f 56/60/28 58/62/28 57/61/28
f 58/62/29 60/64/29 59/63/29
f 60/64/30 62/67/30 61/65/30
f 8/9/31 68/102/31 69/66/31
f 62/67/32 64/69/32 63/68/32
f 64/69/33 2/1/33 1/3/33
f 63/72/34 1/280/34 3/281/34
f 3/281/34 5/282/34 7/283/34
f 7/283/34 9/284/34 11/285/34
f 11/285/34 13/286/34 15/287/34
f 15/287/34 17/288/34 19/289/34
f 19/289/34 21/290/34 23/291/34
f 23/291/34 25/292/34 27/293/34
f 27/293/34 29/294/34 31/70/34
f 31/70/34 33/295/34 35/296/34
f 35/296/34 37/297/34 39/298/34
f 39/298/34 41/299/34 43/300/34
f 43/300/34 45/301/34 47/71/34
f 47/71/34 49/302/34 51/303/34
f 51/303/34 53/304/34 55/305/34
f 55/305/34 57/306/34 59/307/34
f 59/307/34 61/308/34 63/72/34
f 63/72/34 3/281/34 7/283/34
f 7/283/34 11/285/34 15/287/34
f 15/287/34 19/289/34 23/291/34
f 23/291/34 27/293/34 31/70/34
f 31/70/34 35/296/34 39/298/34
f 39/298/34 43/300/34 47/71/34
f 47/71/34 51/303/34 55/305/34
f 55/305/34 59/307/34 63/72/34
f 63/72/34 7/283/34 15/287/34
f 15/287/34 23/291/34 31/70/34
f 31/70/34 39/298/34 47/71/34
f 47/71/34 55/305/34 63/72/34
f 63/72/34 15/287/34 31/70/34
f 80/73/35 79/83/35 111/74/35
f 26/28/36 77/103/36 78/76/36
f 44/47/37 86/104/37 87/77/37
f 62/67/38 95/105/38 96/78/38
f 18/19/39 73/134/39 74/79/39
f 36/39/40 82/108/40 83/80/40
f 54/58/41 91/109/41 92/81/41
f 10/11/42 69/66/42 70/82/42
f 28/30/43 78/76/43 79/83/43
f 46/49/44 87/77/44 88/84/44
f 4/4/45 2/1/45 66/85/45
f 64/69/46 96/78/46 66/85/46
f 20/22/47 74/79/47 75/87/47
f 38/41/48 83/80/48 84/88/48
f 56/60/49 92/81/49 93/89/49
f 12/13/50 70/82/50 71/90/50
f 30/32/51 79/83/51 80/73/51
f 48/51/52 88/84/52 89/92/52
f 4/4/53 65/86/53 67/94/53
f 22/24/54 75/87/54 76/96/54
f 40/43/55 84/88/55 85/97/55
f 58/62/56 93/89/56 94/98/56
f 14/15/57 71/90/57 72/99/57
f 32/34/58 80/117/58 81/100/58
f 50/53/59 89/309/59 90/101/59
f 6/6/60 67/115/60 68/102/60
f 24/26/61 76/96/61 77/103/61
f 42/45/62 85/97/62 86/104/62
f 60/64/63 94/98/63 95/105/63
f 16/17/64 72/99/64 73/106/64
f 34/37/65 81/100/65 82/108/65
f 52/56/66 90/101/66 91/109/66
f 114/110/67 146/209/67 147/111/67
f 65/113/68 97/310/68 99/114/68
f 93/89/69 125/149/69 126/116/69
f 80/117/70 112/311/70 113/118/70
f 67/115/71 99/114/71 100/119/71
f 95/105/72 94/98/72 126/116/72
f 81/100/73 113/118/73 114/121/73
f 68/102/74 100/119/74 101/122/74
f 95/105/75 127/120/75 128/123/75
f 82/108/76 114/121/76 115/124/76
f 69/66/77 101/122/77 102/125/77
f 96/78/78 128/123/78 98/126/78
f 83/80/79 115/124/79 116/127/79
f 70/82/80 102/125/80 103/128/80
f 84/88/81 116/127/81 117/129/81
f 71/90/82 103/128/82 104/130/82
f 85/97/83 117/129/83 118/131/83
f 72/99/84 104/130/84 105/132/84
f 87/77/85 86/104/85 118/131/85
f 73/134/86 105/312/86 106/135/86
f 87/77/87 119/133/87 120/136/87
f 74/79/88 106/135/88 107/137/88
f 88/138/89 120/176/89 121/139/89
f 75/87/90 107/137/90 108/141/90
f 90/142/91 89/140/91 121/139/91
f 76/96/92 108/141/92 109/144/92
f 90/101/93 122/313/93 123/145/93
f 77/103/94 109/144/94 110/146/94
f 91/109/95 123/145/95 124/147/95
f 78/76/96 110/146/96 111/74/96
f 66/85/97 98/126/97 97/148/97
f 92/81/98 124/147/98 125/149/98
f 149/150/21 181/278/21 182/151/21
f 101/153/99 133/210/99 134/154/99
f 128/156/100 160/211/100 130/157/100
f 115/112/101 147/111/101 148/159/101
f 103/161/102 102/155/102 134/154/102
f 117/163/103 116/160/103 148/159/103
f 103/161/104 135/162/104 136/165/104
f 117/163/105 149/164/105 150/167/105
f 105/169/106 104/166/106 136/165/106
f 119/171/107 118/168/107 150/167/107
f 106/173/108 105/169/108 137/170/108
f 119/171/109 151/172/109 152/175/109
f 107/177/110 106/173/110 138/174/110
f 120/176/111 152/175/111 153/179/111
f 107/177/112 139/178/112 140/180/112
f 121/139/113 153/179/113 154/182/113
f 109/183/114 108/181/114 140/180/114
f 122/143/115 154/182/115 155/185/115
f 109/183/116 141/184/116 142/187/116
f 123/186/117 155/185/117 156/189/117
f 111/191/118 110/188/118 142/187/118
f 98/158/119 130/157/119 129/193/119
f 125/195/120 124/190/120 156/189/120
f 111/191/121 143/192/121 144/197/121
f 99/199/122 97/194/122 129/193/122
f 125/195/123 157/196/123 158/201/123
f 113/203/124 112/198/124 144/197/124
f 99/199/125 131/200/125 132/205/125
f 127/207/126 126/202/126 158/201/126
f 114/110/127 113/203/127 145/204/127
f 101/153/128 100/206/128 132/205/128
f 128/156/129 127/207/129 159/208/129
f 163/214/130 161/314/130 162/315/130
f 162/315/130 192/316/130 191/317/130
f 191/317/130 190/318/130 189/319/130
f 189/319/130 188/320/130 187/321/130
f 187/321/130 186/322/130 185/323/130
f 185/323/130 184/324/130 183/325/130
f 183/325/130 182/326/130 181/327/130
f 181/327/130 180/328/130 179/212/130
f 179/212/130 178/329/130 177/330/130
f 177/330/130 176/331/130 175/332/130
f 175/332/130 174/333/130 173/334/130
f 173/334/130 172/335/130 171/213/130
f 171/213/130 170/336/130 169/337/130
f 169/337/130 168/338/130 167/339/130
f 167/339/130 166/340/130 165/341/130
f 165/341/130 164/342/130 163/214/130
f 163/214/130 162/315/130 191/317/130
f 191/317/130 189/319/130 187/321/130
f 187/321/130 185/323/130 183/325/130
f 183/325/130 181/327/130 179/212/130
f 179/212/130 177/330/130 175/332/130
f 175/332/130 173/334/130 171/213/130
f 171/213/130 169/337/130 167/339/130
f 167/339/130 165/341/130 163/214/130
f 163/214/130 191/317/130 187/321/130
f 187/321/130 183/325/130 179/212/130
f 179/212/130 175/332/130 171/213/130
f 171/213/130 167/339/130 163/214/130
f 163/214/130 187/321/130 179/212/130
f 136/215/8 168/279/8 169/216/8
f 150/152/22 182/151/22 183/218/22
f 137/217/9 169/216/9 170/220/9
f 151/219/23 183/218/23 184/222/23
f 138/224/10 170/343/10 171/225/10
f 152/223/24 184/222/24 185/227/24
f 139/226/11 171/225/11 172/229/11
f 153/231/25 185/344/25 186/232/25
f 140/230/12 172/229/12 173/234/12
f 154/233/26 186/232/26 187/236/26
f 142/238/13 141/235/13 173/234/13
f 155/237/27 187/236/27 188/240/27
f 142/238/14 174/239/14 175/242/14
f 130/244/1 162/273/1 161/245/1
f 156/241/28 188/240/28 189/247/28
f 143/243/15 175/242/15 176/249/15
f 129/251/2 161/345/2 163/252/2
f 157/248/29 189/247/29 190/254/29
f 145/256/16 144/346/16 176/257/16
f 131/253/3 163/252/3 164/259/3
f 158/255/30 190/254/30 191/261/30
f 145/256/17 177/258/17 178/263/17
f 132/260/4 164/259/4 165/265/4
f 159/262/32 191/261/32 192/267/32
f 146/264/18 178/263/18 179/269/18
f 133/266/5 165/265/5 166/271/5
f 160/268/33 192/267/33 162/273/33
f 147/270/19 179/269/19 180/274/19
f 134/272/6 166/271/6 167/276/6
f 148/275/20 180/274/20 181/278/20
f 135/277/7 167/276/7 168/279/7
